<svg width="35" height="19" viewBox="0 0 35 19" fill="none" xmlns="http://www.w3.org/2000/svg">
<path d="M34.5334 0.464312C34.6813 0.611342 34.7987 0.785939 34.8787 0.978128C34.9588 1.17032 35 1.37632 35 1.58437C35 1.79242 34.9588 1.99843 34.8787 2.19062C34.7987 2.3828 34.6813 2.55741 34.5334 2.70444L18.6253 18.5357C18.4776 18.6829 18.3021 18.7997 18.109 18.8793C17.9159 18.959 17.7089 19 17.4998 19C17.2908 19 17.0838 18.959 16.8906 18.8793C16.6975 18.7997 16.5221 18.6829 16.3743 18.5357L0.466196 2.70444C0.167695 2.40738 0 2.00447 0 1.58437C0 1.16426 0.167695 0.761371 0.466196 0.464312C0.764697 0.167253 1.16955 0.000367946 1.5917 0.000367946C2.01384 0.000367946 2.4187 0.167253 2.7172 0.464312L17.4998 15.1775L32.2824 0.464312C32.4302 0.317118 32.6056 0.200351 32.7988 0.120681C32.9919 0.0410114 33.1989 0 33.4079 0C33.617 0 33.824 0.0410114 34.0171 0.120681C34.2102 0.200351 34.3857 0.317118 34.5334 0.464312Z" fill="white"/>
</svg>
