<svg width="21" height="22" viewBox="0 0 21 22" fill="none" xmlns="http://www.w3.org/2000/svg">
<path d="M10.625 0.333984C5.10081 0.333984 0.625 5.12371 0.625 11.0354C0.625 16.947 5.10081 21.7367 10.625 21.7367C16.1492 21.7367 20.625 16.947 20.625 11.0354C20.625 5.12371 16.1492 0.333984 10.625 0.333984ZM15.5363 7.66529L13.8952 15.9416C13.7742 16.5284 13.4476 16.6708 12.9919 16.3947L10.4919 14.4227L9.28629 15.6654C9.15323 15.8078 9.04032 15.9286 8.78226 15.9286L8.95968 13.2058L13.5927 8.72679C13.7944 8.53693 13.5484 8.42905 13.2823 8.61892L7.55645 12.4766L5.08871 11.6524C4.55242 11.4712 4.54032 11.0785 5.20161 10.8023L14.8427 6.82385C15.2903 6.65124 15.6815 6.94035 15.5363 7.66529Z" fill="#B8B8B8"/>
</svg>
