<svg width="18" height="18" viewBox="0 0 18 18" fill="none" xmlns="http://www.w3.org/2000/svg">
<path d="M9.12897 4.49707C6.7155 4.49707 4.76879 6.50098 4.76879 8.98535C4.76879 11.4697 6.7155 13.4736 9.12897 13.4736C11.5424 13.4736 13.4891 11.4697 13.4891 8.98535C13.4891 6.50098 11.5424 4.49707 9.12897 4.49707ZM9.12897 11.9033C7.56932 11.9033 6.29428 10.5947 6.29428 8.98535C6.29428 7.37598 7.56553 6.06738 9.12897 6.06738C10.6924 6.06738 11.9637 7.37598 11.9637 8.98535C11.9637 10.5947 10.6886 11.9033 9.12897 11.9033ZM14.6845 4.31348C14.6845 4.89551 14.2291 5.36035 13.6675 5.36035C13.1021 5.36035 12.6505 4.8916 12.6505 4.31348C12.6505 3.73535 13.1059 3.2666 13.6675 3.2666C14.2291 3.2666 14.6845 3.73535 14.6845 4.31348ZM17.5723 5.37598C17.5078 3.97363 17.1966 2.73145 16.1986 1.70801C15.2044 0.68457 13.9976 0.364258 12.6353 0.293945C11.2313 0.211914 7.02288 0.211914 5.61882 0.293945C4.26029 0.360352 3.05356 0.680664 2.05554 1.7041C1.05752 2.72754 0.750143 3.96973 0.681838 5.37207C0.602148 6.81738 0.602148 11.1494 0.681838 12.5947C0.746349 13.9971 1.05752 15.2393 2.05554 16.2627C3.05356 17.2861 4.2565 17.6064 5.61882 17.6768C7.02288 17.7588 11.2313 17.7588 12.6353 17.6768C13.9976 17.6104 15.2044 17.29 16.1986 16.2627C17.1928 15.2393 17.504 13.9971 17.5723 12.5947C17.652 11.1494 17.652 6.82129 17.5723 5.37598ZM15.7584 14.1455C15.4624 14.9111 14.8894 15.501 14.1418 15.8096C13.0224 16.2666 10.3661 16.1611 9.12897 16.1611C7.89188 16.1611 5.23175 16.2627 4.11609 15.8096C3.37232 15.5049 2.79931 14.915 2.49953 14.1455C2.05554 12.9932 2.158 10.2588 2.158 8.98535C2.158 7.71191 2.05933 4.97363 2.49953 3.8252C2.79552 3.05957 3.36853 2.46973 4.11609 2.16113C5.23555 1.7041 7.89188 1.80957 9.12897 1.80957C10.3661 1.80957 13.0262 1.70801 14.1418 2.16113C14.8856 2.46582 15.4586 3.05566 15.7584 3.8252C16.2024 4.97754 16.0999 7.71191 16.0999 8.98535C16.0999 10.2588 16.2024 12.9971 15.7584 14.1455Z" fill="#B8B8B8"/>
</svg>
