<svg width="20" height="23" viewBox="0 0 20 23" fill="none" xmlns="http://www.w3.org/2000/svg">
<path d="M16.9687 3.04035C16.4726 2.55952 14.4648 1.02665 9.9882 1.0061C9.9882 1.0061 4.71085 0.673223 2.14054 3.15541C0.710855 4.65952 0.206949 6.86637 0.152261 9.59925C0.0975735 12.3321 0.0311672 17.4527 4.72257 18.8417H4.72648L4.72257 20.9623C4.72257 20.9623 4.69132 21.8212 5.23039 21.9938C5.87882 22.2075 6.26164 21.554 6.88273 20.8513C7.22257 20.465 7.69132 19.8979 8.04679 19.4664C11.2577 19.7499 13.7226 19.1006 14.0038 19.0061C14.6523 18.7842 18.3202 18.291 18.914 13.1705C19.5312 7.88555 18.6171 4.54857 16.9687 3.04035ZM17.5116 12.7842C17.0077 17.0582 14.0351 17.3294 13.4882 17.5143C13.2538 17.5924 11.0859 18.1595 8.3632 17.9746C8.3632 17.9746 6.33195 20.5513 5.69914 21.2212C5.4921 21.439 5.26554 21.4184 5.26945 20.9869C5.26945 20.7034 5.28507 17.465 5.28507 17.465C5.28117 17.465 5.28117 17.465 5.28507 17.465C1.30851 16.3061 1.54289 11.9458 1.58585 9.665C1.62882 7.38418 2.03898 5.51432 3.24992 4.25678C5.4257 2.18144 9.90617 2.48966 9.90617 2.48966C13.6913 2.5061 15.5038 3.7061 15.9257 4.10884C17.3202 5.36637 18.0312 8.37459 17.5116 12.7842ZM12.0819 9.46363C12.0976 9.81706 11.5937 9.84172 11.578 9.48829C11.5351 8.58418 11.1327 8.14446 10.3046 8.09514C9.96867 8.07459 9.99992 7.54446 10.3319 7.565C11.4218 7.62665 12.0273 8.28418 12.0819 9.46363ZM12.8749 9.92802C12.914 8.18555 11.8788 6.82117 9.91398 6.66911C9.58195 6.64446 9.6171 6.11432 9.94913 6.13898C12.2148 6.31158 13.4218 7.95131 13.3788 9.94035C13.3749 10.2938 12.8671 10.2773 12.8749 9.92802ZM14.7109 10.4787C14.7148 10.8321 14.2069 10.8362 14.2069 10.4828C14.1835 7.1335 12.0624 5.30884 9.4882 5.28829C9.15617 5.28418 9.15617 4.75815 9.4882 4.75815C12.3671 4.7787 14.6835 6.87048 14.7109 10.4787ZM14.2694 14.5102V14.5184C13.8476 15.2993 13.0585 16.1623 12.246 15.8869L12.2382 15.8746C11.414 15.6321 9.47257 14.5801 8.24601 13.5527C7.6132 13.0266 7.03507 12.4061 6.58976 11.8102C6.18742 11.2801 5.78117 10.6513 5.38664 9.89514C4.5546 8.31295 4.37101 7.6061 4.37101 7.6061C4.10929 6.75131 4.9257 5.92117 5.67179 5.47733H5.6796C6.03898 5.28007 6.38273 5.34583 6.6132 5.63761C6.6132 5.63761 7.09757 6.24583 7.3046 6.54583C7.49992 6.82528 7.76164 7.27322 7.89835 7.52391C8.13664 7.97185 7.9882 8.42802 7.75382 8.61706L7.28507 9.01158C7.04679 9.21295 7.07804 9.58692 7.07804 9.58692C7.07804 9.58692 7.77335 12.3527 10.371 13.0513C10.371 13.0513 10.7265 13.0842 10.9179 12.8335L11.2929 12.3403C11.4726 12.0938 11.9062 11.9376 12.3319 12.1883C12.9062 12.5294 13.6366 13.0595 14.121 13.5403C14.3944 13.7746 14.4569 14.1321 14.2694 14.5102Z" fill="#B8B8B8"/>
</svg>
